<svg width="64" height="64" viewBox="0 0 64 64" fill="none" xmlns="http://www.w3.org/2000/svg">
  <circle cx="32" cy="32" r="32" fill="#111827"/>
  <path d="M37.294 41.662c-1.402 1.145-3.438 1.716-6.109 1.716-2.932 0-5.191-.745-6.775-2.238-1.585-1.493-2.377-3.455-2.377-5.888 0-2.671.939-4.782 2.815-6.332 1.877-1.55 4.383-2.325 7.521-2.325 1.363 0 2.67.107 3.921.321v-1.317c0-2.661-1.401-3.992-4.203-3.992-1.943 0-3.912.497-5.906 1.491l-1.595-3.305c2.502-1.318 5.172-1.977 8.009-1.977 2.84 0 5.024.694 6.553 2.082 1.528 1.389 2.293 3.583 2.293 6.584v8.298c0 1.751.228 3.039.684 3.863.456.825 1.179 1.34 2.168 1.545v1.665c-.722.525-1.744.787-3.064.787-1.197 0-2.158-.286-2.883-.856-.724-.571-1.243-1.393-1.552-2.467Zm-1.054-3.201v-4.021a14.772 14.772 0 0 0-3.391-.392c-3.76 0-5.641 1.179-5.641 3.536 0 1.129.378 1.985 1.133 2.57.756.584 1.775.876 3.058.876 1.572 0 2.84-.429 3.802-1.287.959-.857 1.439-1.952 1.439-3.282Z" fill="white"/>
  <path d="M17.5 45.066c8.084 4.928 18.386 6.133 27.744 3.172 2.776-.878 5.387-2.139 7.756-3.749" stroke="#FF9900" stroke-width="3.2" stroke-linecap="round"/>
  <path d="M44.957 47.574 53 44.162l-2.802 8.295" stroke="#FF9900" stroke-width="3.2" stroke-linecap="round" stroke-linejoin="round"/>
</svg>
