<svg width="64" height="64" viewBox="0 0 64 64" fill="none" xmlns="http://www.w3.org/2000/svg">
  <circle cx="32" cy="32" r="32" fill="#FFFFFF"/>
  <path d="M16.203 38.884c0 3.391 2.599 5.579 6.611 5.579 2.316 0 4.13-.572 5.557-1.755l-2.227-2.453c-.857.674-1.895 1.01-3.175 1.01-1.872 0-3.027-.853-3.296-2.442h9.22c.044-.315.067-.641.067-1.01 0-3.796-2.383-6.417-5.937-6.417-3.632 0-6.82 2.7-6.82 7.488Zm6.735-4.308c1.42 0 2.429.943 2.586 2.43h-5.317c.314-1.566 1.425-2.43 2.731-2.43Z" fill="#E53238"/>
  <path d="M31.406 44.161c3.533 0 6.334-2.756 6.334-7.377 0-4.621-2.801-7.388-6.334-7.388-1.689 0-3.14.619-4.05 1.802v-7.783h-3.531v20.343h3.353V42.08c.944 1.397 2.453 2.081 4.228 2.081Zm-.842-3.083c-1.904 0-3.296-1.543-3.296-4.294 0-2.756 1.392-4.297 3.296-4.297 1.883 0 3.287 1.541 3.287 4.297 0 2.751-1.404 4.294-3.287 4.294Z" fill="#0064D2"/>
  <path d="M45.399 44.162c1.948 0 3.554-.674 4.442-1.89v1.486h3.364V31.742h-3.531v1.274c-.865-.988-2.34-1.62-4.206-1.62-3.489 0-6.289 2.677-6.289 6.977 0 4.309 2.8 6.989 6.22 6.989Zm.954-3.03c-1.882 0-3.286-1.307-3.286-3.759 0-2.441 1.404-3.75 3.286-3.75 1.904 0 3.309 1.309 3.309 3.75 0 2.452-1.405 3.759-3.309 3.759Z" fill="#F5AF02"/>
</svg>
